<?xml version="1.0" standalone="no"?>
<!DOCTYPE svg PUBLIC "-//W3C//DTD SVG 20010904//EN"
 "http://www.w3.org/TR/2001/REC-SVG-20010904/DTD/svg10.dtd">
<svg version="1.0" xmlns="http://www.w3.org/2000/svg"
 width="847.000000pt" height="557.000000pt" viewBox="0 0 847.000000 557.000000"
 preserveAspectRatio="xMidYMid meet">

<g transform="translate(0.000000,557.000000) scale(0.100000,-0.100000)"
fill="#000000" stroke="none">
<path d="M3590 3810 l0 -270 250 0 250 0 0 270 0 270 -250 0 -250 0 0 -270z"/>
<path d="M270 3680 l0 -170 345 0 345 0 0 170 0 170 -345 0 -345 0 0 -170z"/>
<path d="M1087 3833 c-4 -3 -7 -249 -7 -545 l0 -538 440 0 440 0 0 545 0 545
-433 0 c-239 0 -437 -3 -440 -7z"/>
<path d="M2090 2625 l0 -775 690 0 690 0 0 775 0 775 -690 0 -690 0 0 -775z"/>
<path d="M3600 3170 l0 -230 620 0 620 0 0 230 0 230 -620 0 -620 0 0 -230z"/>
<path d="M7355 2808 c-3 -7 -4 -236 -3 -508 l3 -495 220 0 220 0 0 505 0 505
-218 3 c-168 2 -219 0 -222 -10z"/>
<path d="M2970 1220 l0 -450 255 0 255 0 0 450 0 450 -255 0 -255 0 0 -450z"/>
</g>
</svg>
